<?xml version="1.0" encoding="utf-8"?>
<!-- Generator: Adobe Illustrator 16.0.0, SVG Export Plug-In . SVG Version: 6.00 Build 0)  -->
<!DOCTYPE svg PUBLIC "-//W3C//DTD SVG 1.1//EN" "http://www.w3.org/Graphics/SVG/1.1/DTD/svg11.dtd">
<svg version="1.1" id="Layer_1" xmlns="http://www.w3.org/2000/svg" xmlns:xlink="http://www.w3.org/1999/xlink" x="0px" y="0px"
	 width="343.227px" height="70px" viewBox="0 0 343.227 70" enable-background="new 0 0 343.227 70" xml:space="preserve">
<g>
	<g>
		<path fill="#FFFFFF" d="M15.329,19.877v-3.091c2.705-0.05,4.587-1.116,4.961-4h4.179v22.413h4.967v4.024H15.329v-4.007h4.914
			V19.877H15.329z"/>
	</g>
	<path fill="#FFFFFF" d="M44.645,48.325H0V3.683h44.645V48.325z M2.05,46.275h40.543V5.731H2.05V46.275z"/>
</g>
<g>
	<g>
		<path fill="#FFFFFF" d="M68.19,25.119c-0.09,0.054-0.127,0.065-0.146,0.09c-1.996,2.547-3.991,5.093-5.979,7.646
			c-0.092,0.117-0.169,0.289-0.164,0.432c0.038,1.05,0.794,2.163,1.802,2.379c0.762,0.163,1.606,0.2,2.368,0.055
			c1.315-0.25,2.07-1.353,2.107-3.025C68.23,30.19,68.19,27.684,68.19,25.119 M61.82,26.976c0.154-0.164,0.208-0.214,0.253-0.271
			c1.949-2.493,3.904-4.983,5.834-7.491c0.141-0.183,0.187-0.519,0.137-0.755c-0.311-1.476-1.346-2.31-2.827-2.331
			c-1.835-0.026-2.837,0.653-3.229,2.235c-0.109,0.439-0.154,0.903-0.16,1.356c-0.02,1.538-0.007,3.077-0.007,4.615L61.82,26.976
			L61.82,26.976z M72.061,26.001c0,2.178,0.019,4.357-0.007,6.535c-0.016,1.445-0.352,2.82-1.077,4.087
			c-0.804,1.4-1.993,2.326-3.535,2.768c-1.633,0.467-3.286,0.478-4.919-0.023c-2.613-0.803-3.936-2.725-4.419-5.292
			c-0.168-0.892-0.211-1.817-0.216-2.728c-0.023-3.718-0.021-7.436-0.004-11.153c0.007-1.471,0.205-2.917,0.857-4.263
			c1.12-2.308,3.019-3.446,5.527-3.633c1.422-0.106,2.82,0.026,4.116,0.68c2.143,1.084,3.17,2.955,3.538,5.234
			c0.133,0.808,0.158,1.638,0.172,2.459c0.023,1.777,0.006,3.553,0.006,5.33H72.061z"/>
	</g>
	<path fill="#FFFFFF" d="M87.311,48.325H42.666V3.683h44.645V48.325z M44.716,46.275h40.543V5.731H44.716V46.275z"/>
</g>
<g>
	<polygon fill="#FFFFFF" points="199.98,39.214 185.831,39.214 185.831,12.794 199.978,12.794 199.978,16.74 190.054,16.74 
		190.054,23.996 198.786,23.996 198.786,27.988 190.064,27.988 190.064,35.171 199.98,35.171 	"/>
	<path fill="#FFFFFF" d="M215.228,48.325h-44.645V3.683h44.645V48.325z M172.633,46.275h40.543V5.731h-40.543V46.275z"/>
</g>
<g>
	<polygon fill="#FFFFFF" points="228.079,12.808 228.079,39.2 232.038,39.2 232.038,24.098 238.344,39.2 242.229,39.2 
		242.229,12.808 238.344,12.808 238.344,28.35 232.186,12.808 	"/>
	<path fill="#FFFFFF" d="M257.894,48.325h-44.646V3.683h44.646V48.325z M215.299,46.275h40.543V5.731h-40.543V46.275z"/>
</g>
<g>
	<polygon fill="#FFFFFF" points="322.965,35.385 327.838,35.385 327.838,39.202 313.678,39.202 313.678,35.419 318.602,35.419 
		318.602,16.664 313.854,16.664 313.854,12.807 327.743,12.807 327.743,16.646 322.965,16.646 	"/>
	<g>
		<path fill="#FFFFFF" d="M343.227,48.325h-44.645V3.683h44.645V48.325z M300.631,46.275h40.543V5.731h-40.543V46.275z"/>
	</g>
</g>
<g>
	<path fill="#FFFFFF" d="M129.978,48.325H85.333V3.683h44.645V48.325z M87.383,46.275h40.543V5.731H87.383V46.275z"/>
	<g>
		<path fill="#FFFFFF" d="M100.662,19.877v-3.091c2.705-0.05,4.587-1.116,4.961-4h4.179v22.413h4.967v4.024h-14.106v-4.007h4.914
			V19.877H100.662z"/>
	</g>
</g>
<g>
	<path fill="#FFFFFF" d="M172.644,48.325h-44.645V3.683h44.645V48.325z M130.049,46.275h40.543V5.731h-40.543V46.275z"/>
	<g>
		<path fill="#FFFFFF" d="M153.523,25.119c-0.09,0.054-0.127,0.065-0.146,0.09c-1.996,2.547-3.991,5.093-5.979,7.646
			c-0.092,0.117-0.169,0.289-0.164,0.432c0.038,1.05,0.794,2.163,1.802,2.379c0.762,0.163,1.606,0.2,2.368,0.055
			c1.315-0.25,2.07-1.353,2.107-3.025C153.563,30.19,153.523,27.684,153.523,25.119 M147.153,26.976
			c0.154-0.164,0.208-0.214,0.253-0.271c1.949-2.493,3.904-4.983,5.834-7.491c0.141-0.183,0.187-0.519,0.137-0.755
			c-0.311-1.476-1.346-2.31-2.827-2.331c-1.835-0.026-2.837,0.653-3.229,2.235c-0.109,0.439-0.154,0.903-0.16,1.356
			c-0.02,1.538-0.007,3.077-0.007,4.615L147.153,26.976L147.153,26.976z M157.394,26.001c0,2.178,0.019,4.357-0.007,6.535
			c-0.016,1.445-0.352,2.82-1.077,4.087c-0.804,1.4-1.993,2.326-3.535,2.768c-1.633,0.467-3.286,0.478-4.919-0.023
			c-2.613-0.803-3.936-2.725-4.419-5.292c-0.168-0.892-0.211-1.817-0.216-2.728c-0.023-3.718-0.021-7.436-0.004-11.153
			c0.007-1.471,0.205-2.917,0.857-4.263c1.12-2.308,3.019-3.446,5.527-3.633c1.422-0.106,2.82,0.026,4.116,0.68
			c2.143,1.084,3.17,2.955,3.538,5.234c0.133,0.808,0.158,1.638,0.172,2.459c0.023,1.777,0.006,3.553,0.006,5.33H157.394z"/>
	</g>
</g>
<g>
	<path fill="#FFFFFF" d="M300.561,48.325h-44.645V3.683h44.645V48.325z M257.965,46.275h40.543V5.731h-40.543V46.275z"/>
	<polygon fill="#FFFFFF" points="285.313,39.214 271.163,39.214 271.163,12.794 285.311,12.794 285.311,16.74 275.387,16.74 
		275.387,23.996 284.12,23.996 284.12,27.988 275.397,27.988 275.397,35.171 285.313,35.171 	"/>
</g>
<g>
	<path fill="#FFFFFF" d="M0,67.404v-7.362h4.823v0.817H0.916v2.373h3.831v0.816H0.916v2.538h3.907v0.817H0z"/>
	<path fill="#FFFFFF" d="M12.599,67.404l-4.295-5.873v5.873H7.388v-7.362h0.938l4.239,5.751v-5.751h0.916v7.362H12.599z"/>
	<path fill="#FFFFFF" d="M16.015,63.729c0-2.263,1.667-3.808,3.787-3.808c1.302,0,2.207,0.628,2.792,1.457l-0.773,0.431
		c-0.419-0.619-1.182-1.072-2.019-1.072c-1.612,0-2.836,1.236-2.836,2.992c0,1.744,1.224,2.99,2.836,2.99
		c0.837,0,1.6-0.441,2.019-1.07l0.784,0.432c-0.619,0.838-1.501,1.457-2.803,1.457C17.682,67.537,16.015,65.992,16.015,63.729z"/>
	<path fill="#FFFFFF" d="M24.585,63.729c0-2.174,1.469-3.808,3.653-3.808c2.175,0,3.654,1.634,3.654,3.808s-1.479,3.809-3.654,3.809
		C26.054,67.537,24.585,65.902,24.585,63.729z M30.942,63.729c0-1.722-1.06-2.992-2.704-2.992c-1.656,0-2.704,1.271-2.704,2.992
		c0,1.711,1.048,2.99,2.704,2.99C29.883,66.719,30.942,65.439,30.942,63.729z"/>
	<path fill="#FFFFFF" d="M39.646,67.404l-4.294-5.873v5.873h-0.917v-7.362h0.939l4.238,5.751v-5.751h0.916v7.362H39.646z"/>
	<path fill="#FFFFFF" d="M45.181,67.404v-6.545h-2.328v-0.817h5.585v0.817h-2.34v6.545H45.181z"/>
	<path fill="#FFFFFF" d="M55.02,67.404l-1.876-2.924h-1.469v2.924h-0.916v-7.362h2.959c1.347,0,2.307,0.86,2.307,2.22
		c0,1.322-0.904,2.051-1.909,2.141l1.986,3.002H55.02z M55.077,62.262c0-0.828-0.599-1.402-1.471-1.402h-1.932v2.814h1.932
		C54.479,63.674,55.077,63.088,55.077,62.262z"/>
	<path fill="#FFFFFF" d="M58.28,63.729c0-2.174,1.47-3.808,3.653-3.808c2.175,0,3.654,1.634,3.654,3.808s-1.479,3.809-3.654,3.809
		C59.75,67.537,58.28,65.902,58.28,63.729z M64.64,63.729c0-1.722-1.062-2.992-2.706-2.992c-1.656,0-2.704,1.271-2.704,2.992
		c0,1.711,1.048,2.99,2.704,2.99C63.578,66.719,64.64,65.439,64.64,63.729z"/>
	<path fill="#FFFFFF" d="M77.295,67.404l-4.294-5.873v5.873h-0.915v-7.362h0.937l4.239,5.751v-5.751h0.916v7.362H77.295z"/>
	<path fill="#FFFFFF" d="M86.264,67.404l-0.652-1.635h-3.664l-0.65,1.635h-1.05l2.959-7.362h1.138l2.968,7.362H86.264z
		 M83.78,60.991l-1.568,3.963h3.124L83.78,60.991z"/>
	<path fill="#FFFFFF" d="M88.673,63.729c0-2.263,1.668-3.808,3.786-3.808c1.303,0,2.208,0.628,2.793,1.457l-0.773,0.431
		c-0.419-0.619-1.181-1.072-2.02-1.072c-1.61,0-2.837,1.236-2.837,2.992c0,1.744,1.227,2.99,2.837,2.99
		c0.839,0,1.601-0.441,2.02-1.07l0.785,0.432c-0.619,0.838-1.502,1.457-2.805,1.457C90.341,67.537,88.673,65.992,88.673,63.729z"/>
	<path fill="#FFFFFF" d="M97.543,67.404v-7.362h0.916v7.362H97.543z"/>
	<path fill="#FFFFFF" d="M100.986,63.729c0-2.174,1.469-3.808,3.655-3.808c2.174,0,3.653,1.634,3.653,3.808
		s-1.479,3.809-3.653,3.809C102.455,67.537,100.986,65.902,100.986,63.729z M107.344,63.729c0-1.722-1.059-2.992-2.702-2.992
		c-1.656,0-2.705,1.271-2.705,2.992c0,1.711,1.049,2.99,2.705,2.99C106.285,66.719,107.344,65.439,107.344,63.729z"/>
	<path fill="#FFFFFF" d="M116.048,67.404l-4.295-5.873v5.873h-0.914v-7.362h0.937l4.239,5.751v-5.751h0.917v7.362H116.048z"/>
	<path fill="#FFFFFF" d="M125.016,67.404l-0.65-1.635H120.7l-0.651,1.635h-1.048l2.958-7.362h1.137l2.97,7.362H125.016z
		 M122.532,60.991l-1.566,3.963h3.122L122.532,60.991z"/>
	<path fill="#FFFFFF" d="M128.135,67.404v-7.362h0.915v6.545h3.422v0.817H128.135z"/>
	<path fill="#FFFFFF" d="M138.823,67.404v-7.362h2.516c2.286,0,3.776,1.601,3.776,3.688c0,2.097-1.49,3.674-3.776,3.674H138.823
		L138.823,67.404z M144.165,63.729c0-1.588-1.005-2.871-2.826-2.871h-1.6v5.729h1.6C143.129,66.587,144.165,65.307,144.165,63.729z"
		/>
	<path fill="#FFFFFF" d="M147.659,67.404v-7.362h4.825v0.817h-3.909v2.373h3.832v0.816h-3.832v2.538h3.909v0.817H147.659z"/>
	<path fill="#FFFFFF" d="M159.003,67.404v-7.362h4.823v0.817h-3.909v2.373h3.832v0.816h-3.832v2.538h3.909v0.817H159.003z"/>
	<path fill="#FFFFFF" d="M165.949,66.367l0.54-0.695c0.486,0.541,1.281,1.049,2.319,1.049c1.313,0,1.732-0.707,1.732-1.27
		c0-1.898-4.359-0.85-4.359-3.479c0-1.213,1.081-2.041,2.526-2.041c1.127,0,1.998,0.375,2.617,1.026l-0.553,0.673
		c-0.55-0.607-1.324-0.883-2.131-0.883c-0.881,0-1.511,0.475-1.511,1.169c0,1.655,4.359,0.706,4.359,3.456
		c0,1.07-0.729,2.164-2.715,2.164C167.494,67.537,166.557,67.051,165.949,66.367z"/>
	<path fill="#FFFFFF" d="M175.723,67.404v-6.545h-2.329v-0.817h5.584v0.817h-2.339v6.545H175.723z"/>
	<path fill="#FFFFFF" d="M181.299,64.545v-4.504h0.918v4.482c0,1.347,0.729,2.195,2.085,2.195c1.358,0,2.089-0.849,2.089-2.195
		v-4.482h0.915v4.493c0,1.833-1.005,3.003-3.004,3.003C182.305,67.537,181.299,66.355,181.299,64.545z"/>
	<path fill="#FFFFFF" d="M190.138,67.404v-7.362h2.516c2.284,0,3.774,1.601,3.774,3.688c0,2.097-1.49,3.674-3.774,3.674H190.138
		L190.138,67.404z M195.479,63.729c0-1.588-1.004-2.871-2.825-2.871h-1.6v5.729h1.6C194.442,66.587,195.479,65.307,195.479,63.729z"
		/>
	<path fill="#FFFFFF" d="M203.818,67.404l-0.651-1.635h-3.664l-0.651,1.635h-1.048l2.958-7.362h1.138l2.971,7.362H203.818z
		 M201.334,60.991l-1.566,3.963h3.123L201.334,60.991z"/>
	<path fill="#FFFFFF" d="M212.145,67.404l-4.294-5.873v5.873h-0.916v-7.362h0.938l4.237,5.751v-5.751h0.917v7.362H212.145z"/>
	<path fill="#FFFFFF" d="M217.68,67.404v-6.545h-2.329v-0.817h5.584v0.817h-2.339v6.545H217.68z"/>
	<path fill="#FFFFFF" d="M223.256,67.404v-7.362h4.824v0.817h-3.908v2.373h3.83v0.816h-3.83v2.538h3.908v0.817H223.256z"/>
	<path fill="#FFFFFF" d="M230.206,66.367l0.539-0.695c0.485,0.541,1.281,1.049,2.32,1.049c1.313,0,1.732-0.707,1.732-1.27
		c0-1.898-4.36-0.85-4.36-3.479c0-1.213,1.081-2.041,2.526-2.041c1.125,0,1.998,0.375,2.615,1.026l-0.551,0.673
		c-0.552-0.607-1.326-0.883-2.131-0.883c-0.883,0-1.514,0.475-1.514,1.169c0,1.655,4.361,0.706,4.361,3.456
		c0,1.07-0.729,2.164-2.716,2.164C231.75,67.537,230.811,67.051,230.206,66.367z"/>
	<path fill="#FFFFFF" d="M242.176,67.404v-7.362h2.518c2.284,0,3.775,1.601,3.775,3.688c0,2.097-1.491,3.674-3.775,3.674H242.176
		L242.176,67.404z M247.519,63.729c0-1.588-1.005-2.871-2.825-2.871h-1.602v5.729h1.602
		C246.48,66.587,247.519,65.307,247.519,63.729z"/>
	<path fill="#FFFFFF" d="M251.012,67.404v-7.362h4.824v0.817h-3.91v2.373h3.83v0.816h-3.83v2.538h3.91v0.817H251.012z"/>
	<path fill="#FFFFFF" d="M262.354,67.404v-7.362h0.915v7.362H262.354z"/>
	<path fill="#FFFFFF" d="M271.309,67.404l-4.294-5.873v5.873h-0.916v-7.362h0.938l4.238,5.751v-5.751h0.916v7.362H271.309z"/>
	<path fill="#FFFFFF" d="M275.022,67.404v-7.362h4.823v0.817h-3.906v2.373h3.829v0.816h-3.829v3.355H275.022z"/>
	<path fill="#FFFFFF" d="M281.901,63.729c0-2.174,1.469-3.808,3.654-3.808c2.176,0,3.654,1.634,3.654,3.808
		s-1.479,3.809-3.654,3.809C283.37,67.537,281.901,65.902,281.901,63.729z M288.26,63.729c0-1.722-1.061-2.992-2.704-2.992
		c-1.654,0-2.704,1.271-2.704,2.992c0,1.711,1.05,2.99,2.704,2.99C287.2,66.719,288.26,65.439,288.26,63.729z"/>
	<path fill="#FFFFFF" d="M296.016,67.404l-1.879-2.924h-1.469v2.924h-0.914v-7.362h2.957c1.348,0,2.308,0.86,2.308,2.22
		c0,1.322-0.905,2.051-1.91,2.141l1.987,3.002H296.016z M296.068,62.262c0-0.828-0.596-1.402-1.466-1.402h-1.934v2.814h1.934
		C295.473,63.674,296.068,63.088,296.068,62.262z"/>
	<path fill="#FFFFFF" d="M305.866,67.404v-6.061l-2.508,6.061h-0.373l-2.496-6.061v6.061h-0.916v-7.362h1.313l2.287,5.542
		l2.295-5.542h1.314v7.362H305.866z"/>
	<path fill="#FFFFFF" d="M314.866,67.404l-0.65-1.635h-3.666l-0.648,1.635h-1.049l2.957-7.362h1.139l2.969,7.362H314.866z
		 M312.383,60.991l-1.566,3.963h3.123L312.383,60.991z M312.383,59.424h-0.629l1.633-1.59h0.859L312.383,59.424z"/>
	<path fill="#FFFFFF" d="M319.063,67.404v-6.545h-2.328v-0.817h5.584v0.817h-2.338v6.545H319.063z"/>
	<path fill="#FFFFFF" d="M324.643,67.404v-7.362h0.916v7.362H324.643z"/>
	<path fill="#FFFFFF" d="M328.088,63.729c0-2.263,1.668-3.808,3.787-3.808c1.301,0,2.207,0.628,2.791,1.457l-0.773,0.431
		c-0.416-0.619-1.18-1.072-2.018-1.072c-1.611,0-2.838,1.236-2.838,2.992c0,1.744,1.227,2.99,2.838,2.99
		c0.838,0,1.602-0.441,2.018-1.07l0.785,0.432c-0.617,0.838-1.502,1.457-2.803,1.457C329.756,67.537,328.088,65.992,328.088,63.729z
		"/>
	<path fill="#FFFFFF" d="M342.178,67.404l-0.65-1.635h-3.664l-0.652,1.635h-1.049l2.959-7.362h1.137l2.971,7.362H342.178z
		 M339.696,60.991l-1.568,3.963h3.123L339.696,60.991z"/>
</g>
</svg>
